
                <!-- SVG Menu Generated By CIRCULUS.SVG :: http://sarasoueidan.com/tools/circulus -->
                <svg xmlns="http://www.w3.org/2000/svg" xmlns:xlink="http://www.w3.org/1999/xlink" viewBox="-2 -2 504 252" id="menu"
				style="transform-origin: 50% 50% 0px; transform: translate3d(0px, 0px, 0px); touch-action: none; -webkit-user-select: none;">
                    <style>
						svg{
							font-family: "Open Sans",Helvetica,Arial,sans-serif;
							font-size: 14px;
							line-height: 24px;
						
						}
					
                        #menu {
                            display: block;
                            margin: 0 auto;
                            /*overflow: visible;*/ /* uncomment this if you are using bouncing animations*/
                        }

                        a { 
                            cursor: pointer; /* SVG &lt;a&gt; elements don't get this by default, so you need to explicitly set it */
                            outline: none;
							
                        }
                        
                        /* You can change these default styles any way you want */

                        .item .sector {
                            transition: all .1s linear;
                            fill: #fff;
                            stroke: #111;
                        }
                        
                        
                        .item:hover .sector, .item:focus .sector {
                            fill: grey;
                        }

                        .menu-trigger {
                            fill: #EA2A55;
                            pointer-events: auto; /* KEEP THIS to make sure it stays clickable even when SVG's pointer events is disabled */
                        }

                        .menu-trigger:hover, .menu-trigger:focus {
                            cursor: pointer;
                        }
                        symbol {
                            overflow: visible; /* KEEP THIS so that text will not get cut off it it is wider than the icon width */
                        }
                    </style>
                    <g id="symbolsContainer">    
					<symbol class="icon icon-" id="icon-1" viewBox="0 0 41 41">
					<!--Replace the contents of this symbol with the content of your icon-->
					<text fill="#222" x="50%" y="50%" dy=".3em" text-anchor="middle" font-size="1.2em">Menú1</text>
					</symbol>

    <symbol class="icon icon-" id="icon-2" viewBox="0 0 41 41">
	<!--Replace the contents of this symbol with the content of your icon-->
	<text fill="#222" x="50%" y="50%" dy=".3em" text-anchor="middle" font-size="1.2em">Menú2</text>
	</symbol>

    <symbol class="icon icon-" id="icon-3" viewBox="0 0 41 41">
	<!--Replace the contents of this symbol with the content of your icon-->
	<text fill="#222" x="50%" y="50%" dy=".3em" text-anchor="middle" font-size="1.2em">Menú3</text>
	</symbol>

    <symbol class="icon icon-" id="icon-4" viewBox="0 0 41 41">
	<!--Replace the contents of this symbol with the content of your icon-->
	<text fill="#222" x="50%" y="50%" dy=".3em" text-anchor="middle" font-size="1.2em">Menú4</text>
	</symbol>

    <symbol class="icon icon-" id="icon-5" viewBox="0 0 41 41">
	<!--Replace the contents of this symbol with the content of your icon-->
	<text fill="#222" x="50%" y="50%" dy=".3em" text-anchor="middle" font-size="1.2em">Menú5</text>
	</symbol>

    <symbol class="icon icon-" id="icon-6" viewBox="0 0 41 41">
	<!--Replace the contents of this symbol with the content of your icon-->
	<text fill="#222" x="50%" y="50%" dy=".3em" text-anchor="middle" font-size="1.2em">Menú6</text>
	</symbol>

</g>
                    <g id="itemsContainer">        <a class="item" id="item-1" role="link" tabindex="0" xlink:href=" " xlink:title=" " transform="matrix(1,0,0,1,0,0)" data-svg-origin="250 250" style=""><path fill="none" stroke="#111" d="M405,250 l95,0 A250,250 0 0,0 472.75163104709196,136.5023750651133 l-84.64561979789494,43.12909747525694 A155,155 0 0,1 405,250" class="sector"></path><use xlink:href="#icon-1" width="41" height="41" x="433.69769287109375" y="180.47647094726562" transform="rotate(76.5 454.19769287109375 200.97647094726562)"></use></a>
        <a class="item" id="item-2" role="link" tabindex="0" xlink:href=" " xlink:title=" " transform="matrix(0.86074,-0.50904,0.50904,0.86074,-92.44586068857876,162.07484718660692)" data-svg-origin="250 250" style=""><path fill="none" stroke="#111" d="M405,250 l95,0 A250,250 0 0,0 472.75163104709196,136.5023750651133 l-84.64561979789494,43.12909747525694 A155,155 0 0,1 405,250" class="sector"></path><use xlink:href="#icon-2" width="41" height="41" x="433.69769287109375" y="180.47647094726562" transform="rotate(76.5 454.19769287109375 200.97647094726562)"></use></a>
        <a class="item" id="item-3" role="link" tabindex="0" xlink:href=" " xlink:title=" " transform="matrix(0.48175,-0.8763,0.8763,0.48175,-89.51508853639473,348.6382514855371)" data-svg-origin="250 250" style=""><path fill="none" stroke="#111" d="M405,250 l95,0 A250,250 0 0,0 472.75163104709196,136.5023750651133 l-84.64561979789494,43.12909747525694 A155,155 0 0,1 405,250" class="sector"></path><use xlink:href="#icon-3" width="41" height="41" x="433.69769287109375" y="180.47647094726562" transform="rotate(76.5 454.19769287109375 200.97647094726562)"></use></a>
        <a class="item" id="item-4" role="link" tabindex="0" xlink:href=" " xlink:title=" " transform="matrix(-0.03141,-0.9995,0.9995,-0.03141,7.97604967809923,507.72932986096504)" data-svg-origin="250 250" style=""><path fill="none" stroke="#111" d="M405,250 l95,0 A250,250 0 0,0 472.75163104709196,136.5023750651133 l-84.64561979789494,43.12909747525694 A155,155 0 0,1 405,250" class="sector"></path><use xlink:href="#icon-4" width="41" height="41" x="433.69769287109375" y="180.47647094726562" transform="rotate(76.5 454.19769287109375 200.97647094726562)"></use></a>
        <a class="item" id="item-5" role="link" tabindex="0" xlink:href=" " xlink:title=" " transform="matrix(-0.53582,-0.84432,0.84432,-0.53582,172.8747173692455,595.0386801202529)" data-svg-origin="250 250" style=""><path fill="none" stroke="#111" d="M405,250 l95,0 A250,250 0 0,0 472.75163104709196,136.5023750651133 l-84.64561979789494,43.12909747525694 A155,155 0 0,1 405,250" class="sector"></path><use xlink:href="#icon-5" width="41" height="41" x="433.69769287109375" y="180.47647094726562" transform="rotate(76.5 454.19769287109375 200.97647094726562)"></use></a>
        <a class="item" id="item-6" role="link" tabindex="0" xlink:href=" " xlink:title=" " transform="matrix(-0.891,-0.45399,0.45399,-0.891,359.2540061122052,586.2492559819786)" data-svg-origin="250 250" style=""><path fill="none" stroke="#111" d="M405,250 l95,0 A250,250 0 0,0 472.75163104709196,136.5023750651133 l-84.64561979789494,43.12909747525694 A155,155 0 0,1 405,250" class="sector"></path><use xlink:href="#icon-6" width="41" height="41" x="433.69769287109375" y="180.47647094726562" transform="rotate(76.5 454.19769287109375 200.97647094726562)"></use></a>
</g>
                    <g id="trigger" class="trigger menu-trigger" role="button">
                        <circle cx="250" cy="250" r="40"></circle>
                        <!-- menu button label or icon goes here -->
						<text fill="#fff" x="250" y="240" dy=".3em" text-anchor="middle" font-size=".7em">Menú</text>
                    </g>
                </svg>
            